HIERARCHY
ROOT ui
{
	 OFFSET 0 0 0
	 CHANNELS 3 XPosition YPosition Z Position
	 EndSite
	 {
	 OFFSET 0 -1 0
	 }
}
ROOT li
{
	 OFFSET 0 0 0
	 CHANNELS 3 XPosition YPosition Z Position
	 EndSite
	 {
	 OFFSET 0 -1 0
	 }
}
ROOT ul
{
	 OFFSET 0 0 0
	 CHANNELS 3 XPosition YPosition Z Position
	 EndSite
	 {
	 OFFSET 0 -1 0
	 }
}
ROOT ll
{
	 OFFSET 0 0 0
	 CHANNELS 3 XPosition YPosition Z Position
	 EndSite
	 {
	 OFFSET 0 -1 0
	 }
}
ROOT tt
{
	 OFFSET 0 0 0
	 CHANNELS 3 XPosition YPosition Z Position
	 EndSite
	 {
	 OFFSET 0 -1 0
	 }
}
ROOT tb
{
	 OFFSET 0 0 0
	 CHANNELS 3 XPosition YPosition Z Position
	 EndSite
	 {
	 OFFSET 0 -1 0
	 }
}
ROOT td
{
	 OFFSET 0 0 0
	 CHANNELS 3 XPosition YPosition Z Position
	 EndSite
	 {
	 OFFSET 0 -1 0
	 }
}
ROOT v
{
	 OFFSET 0 0 0
	 CHANNELS 3 XPosition YPosition Z Position
	 EndSite
	 {
	 OFFSET 0 -1 0
	 }
}
ROOT bn
{
	 OFFSET 0 0 0
	 CHANNELS 3 XPosition YPosition Z Position
	 EndSite
	 {
	 OFFSET 0 -1 0
	 }
}
MOTION
Frames: 32
Frame Time: 0.002
-0.03680561828613281	0.0020552830696105957	0		0.6246563720703125	-2.6218466796875	0		-0.8616708374023437	0.3044480895996094	0		-0.13794459533691406	-3.339691162109375	0		1.5929879150390625	-0.7714090576171875	0		2.99098095703125	0.19342132568359374	0		4.29856689453125	0.44571636962890626	0		5.86935498046875	0.36238272094726565	0		-0.10382952117919922	5.92311669921875	0		
0.04451049041748047	0.002941965103149414	0		0.6519237060546875	-2.623021240234375	0		-0.790387451171875	0.303510498046875	0		-0.19845651245117188	-3.32733544921875	0		1.6050521240234374	-0.7843228149414062	0		3.00158642578125	0.21153512573242186	0		4.31797998046875	0.45267291259765624	0		5.864806640625	0.37175360107421873	0		-0.1186968765258789	5.91367529296875	0		
-0.03623078918457031	0.0026597609519958495	0		0.6392965087890625	-2.61748681640625	0		-0.7941754760742188	0.29988845825195315	0		-0.1393896484375	-3.340051513671875	0		1.608898681640625	-0.8090784912109374	0		2.9541787109375	0.17267018127441405	0		4.30927978515625	0.45414208984375	0		5.86094873046875	0.364138671875	0		-0.25274903869628906	5.8963173828125	0		
0.03487879943847656	-0.006253929138183594	0		0.6354761352539062	-2.622094970703125	0		-0.7979857177734375	0.296276611328125	0		-0.17208201599121092	-3.337158447265625	0		1.5999876708984375	-0.818596435546875	0		2.9813466796875	0.16752877807617186	0		4.32129296875	0.4402663269042969	0		5.86920654296875	0.3643342590332031	0		-0.25250437927246094	5.89663671875	0		
-0.03879523849487305	3.623630106449127E-4	0		0.645554931640625	-2.63093505859375	0		-0.8028276977539063	0.292691650390625	0		-0.14195169067382812	-3.343349365234375	0		1.6157984619140624	-0.8425353393554688	0		2.962489990234375	0.16320028686523438	0		4.30952099609375	0.4408199157714844	0		5.86943310546875	0.3646844787597656	0		-0.2522966766357422	5.89696630859375	0		
0.03836216354370117	-0.001636631965637207	0		0.6198095703125	-2.627140869140625	0		-0.8685631103515625	0.2981741943359375	0		-0.20154949951171874	-3.33096923828125	0		1.6287435302734374	-0.8564121704101563	0		2.98548095703125	0.1521553955078125	0		4.33370166015625	0.44076223754882815	0		5.874755859375	0.3729630737304688	0		-0.11682766723632812	5.913955078125	0		
-0.03542167282104492	0.003997308969497681	0		0.6479413452148437	-2.628274658203125	0		-0.7974403686523438	0.297282958984375	0		-0.1385224914550781	-3.3387158203125	0		1.638587890625	-0.873223876953125	0		2.96487109375	0.109878173828125	0		4.3218359375	0.44134869384765624	0		5.89188623046875	0.37305612182617187	0		-0.11771495056152344	5.91531982421875	0		
0.03857251739501953	-9.308310151100159E-4	0		0.6439738159179688	-2.63184130859375	0		-0.802437255859375	0.29371908569335936	0		-0.17240892028808594	-3.33777001953125	0		1.6384283447265624	-0.8868485107421875	0		3.00683447265625	0.1035362548828125	0		4.33366162109375	0.4275426025390625	0		5.8871142578125	0.3825576171875	0		-0.11671712493896484	5.914658203125	0		
-0.038394222259521486	0.0017700190544128417	0		0.6429806518554687	-2.633450439453125	0		-0.81057470703125	0.2862121276855469	0		-0.1424488067626953	-3.342927978515625	0		1.6488883056640624	-0.9186471557617187	0		2.98821533203125	0.0682607421875	0		4.32955615234375	0.4220383605957031	0		5.88297509765625	0.37507559204101565	0		-0.13096766662597656	5.90526513671875	0		
-0.045589637756347653	-0.004737361907958985	0		0.6527970581054687	-2.642239501953125	0		-0.8775584106445312	0.29272860717773436	0		-0.14246170043945314	-3.3425595703125	0		1.64958740234375	-0.9322607421875	0		2.997756103515625	0.046517257690429685	0		4.33023046875	0.40847463989257815	0		5.88289306640625	0.37555599975585935	0		-0.11698141479492187	5.9153896484375	0		
-0.03862751770019531	0.002516077995300293	0		0.6537348022460937	-2.639865234375	0		-0.7908575439453125	0.2845799560546875	0		-0.13845620727539062	-3.33725634765625	0		1.6680845947265626	-0.9531714477539063	0		3.002938232421875	0.008865461349487305	0		4.33092431640625	0.4009358825683594	0		5.89170751953125	0.3749137573242188	0		-0.1153118896484375	5.9137294921875	0		
0.04520932006835938	0.006444223880767822	0		0.6556050415039063	-2.637500244140625	0		-0.7870338134765625	0.2888701171875	0		-0.136583984375	-3.3359130859375	0		1.7065224609375	-0.9734146728515625	0		3.02959326171875	0.002864414930343628	0		4.34267431640625	0.4012298583984375	0		5.89559765625	0.383387939453125	0		-0.11571223449707031	5.91410791015625	0		
0.0306790771484375	-0.005925189971923828	0		0.7011661376953126	-2.6498857421875	0		-0.8113816528320312	0.28764544677734377	0		-0.14288975524902345	-3.34142724609375	0		1.657114501953125	-0.98012890625	0		2.995531005859375	-0.04007894134521484	0		4.3500078125	0.3816168212890625	0		5.88145263671875	0.39419869995117185	0		-0.11718830108642578	5.9155068359375	0		
-0.03954581451416016	0.0036681640148162843	0		0.6479427490234375	-2.6455615234375	0		-0.8009212646484375	0.2788179931640625	0		-0.14314906311035155	-3.3410439453125	0		1.7081815185546876	-1.014574462890625	0		3.027723876953125	-0.06515304565429687	0		4.34139892578125	0.36929302978515627	0		5.88591015625	0.38570269775390625	0		-0.11678050994873047	5.9148740234375	0		
0.029870124816894533	-0.0051454448699951175	0		0.6476002197265625	-2.645149169921875	0		-0.8013672485351563	0.2791790161132813	0		-0.17642771911621094	-3.3380927734375	0		1.6675810546875	-1.025435546875	0		3.0334814453125	-0.11176985931396484	0		4.3463642578125	0.33573797607421874	0		5.889322265625	0.37823281860351565	0		-0.2507843780517578	5.8955478515625	0		
-0.040479007720947265	0.0044439082145690915	0		0.6232861328125	-2.639326171875	0		-0.8728634643554688	0.28075732421875	0		-0.14384573364257813	-3.340275390625	0		1.71777001953125	-1.0458590087890625	0		3.037730712890625	-0.1263570327758789	0		4.3507177734375	0.3281961669921875	0		5.88010498046875	0.39598190307617187	0		-0.2514894256591797	5.89592822265625	0		
0.03593846893310547	0.0025127739906311035	0		0.6508187255859375	-2.639396240234375	0		-0.8024375	0.279900146484375	0		-0.17622894287109375	-3.336345458984375	0		1.721823486328125	-1.070494140625	0		3.037342529296875	-0.17487484741210937	0		4.35780908203125	0.3085993957519531	0		5.90138037109375	0.38719647216796876	0		-0.11790618133544922	5.91501123046875	0		
-0.045690670013427734	0.0022824690341949464	0		0.6462140502929687	-2.6439208984375	0		-0.8071211547851562	0.276327392578125	0		-0.14581576538085939	-3.3414951171875	0		1.7110142822265626	-1.0838798828125	0		3.0595673828125	-0.18478147888183594	0		4.3628330078125	0.2880281982421875	0		5.88691650390625	0.3970133056640625	0		-0.11870758056640625	5.91539208984375	0		
0.03247335052490234	-0.008684600830078125	0		0.6695534057617187	-2.6489296875	0		-0.80778369140625	0.27668209838867186	0		-0.149433837890625	-3.345068359375	0		1.6991568603515625	-1.0972574462890625	0		3.066099609375	-0.232436279296875	0		4.38158740234375	0.2542071990966797	0		5.89113037109375	0.3904913635253906	0		-0.13471327209472655	5.906025390625	0		
-0.05010663223266602	-9.160990118980408E-4	0		0.6419552612304688	-2.647078369140625	0		-0.8084857177734375	0.277031982421875	0		-0.1520498809814453	-3.34566552734375	0		1.70613525390625	-1.1179696044921874	0		3.055970703125	-0.25781954956054687	0		4.39062939453125	0.23953628540039062	0		5.8993896484375	0.38887841796875	0		-0.25376223754882815	5.896404296875	0		
0.03817173767089844	-0.0010654319524765015	0		0.6542088623046876	-2.65191796875	0		-0.8653123779296875	0.2723289794921875	0		-0.21147952270507814	-3.3323037109375	0		1.7003192138671874	-1.124476318359375	0		3.092277099609375	-0.3150160217285156	0		4.39142138671875	0.21198081970214844	0		5.898654296875	0.3893906555175781	0		-0.25268681335449217	5.89372900390625	0		
-0.03647977066040039	0.005546597957611084	0		0.6555521240234375	-2.649582275390625	0		-0.7999898681640625	0.27654534912109374	0		-0.11735573577880859	-3.344563232421875	0		1.736489013671875	-1.130711181640625	0		3.082572021484375	-0.31244158935546873	0		4.3963125	0.19133174133300782	0		5.8971875	0.40688714599609377	0		-0.12020561218261719	5.91381884765625	0		
0.031753011703491214	0.004722325801849365	0		0.6409290771484375	-2.643987548828125	0		-0.805819091796875	0.2729627685546875	0		-0.17773934936523436	-3.325204345703125	0		1.7624259033203125	-1.1497889404296875	0		3.082853759765625	-0.36906588745117186	0		4.38399365234375	0.15894789123535155	0		5.89228759765625	0.3994078063964844	0		-0.13623587036132812	5.9044189453125	0		
-0.05309219741821289	4.8205798864364626E-4	0		0.6630897827148438	-2.65103173828125	0		-0.8147130126953125	0.26542312622070313	0		-0.14853590393066407	-3.33037890625	0		1.7407578125	-1.145072998046875	0		3.080815673828125	-0.3856666564941406	0		4.3816767578125	0.12636818695068358	0		5.88740869140625	0.39289700317382814	0		-0.13707666015625	5.90475244140625	0		
0.02805395317077637	-0.006583874225616455	0		0.6442282104492187	-2.659396484375	0		-0.8054747314453125	0.2645672302246094	0		-0.15956056213378905	-3.348886474609375	0		1.7318614501953125	-1.1545950927734374	0		3.118244140625	-0.4349644470214844	0		4.3824609375	0.09870792388916015	0		5.88666357421875	0.3932828979492187	0		-0.27023471069335936	5.88531103515625	0		
0.022428709030151366	-0.0011930819749832154	0		0.6476204833984375	-2.654153564453125	0		-0.8021201171875	0.26879995727539063	0		-0.16902615356445314	-3.335430419921875	0		1.7281087646484374	-1.1572249755859374	0		3.10958837890625	-0.4315007019042969	0		4.3952734375	0.0708127670288086	0		5.890068359375	0.4005626220703125	0		-0.25681982421875	5.89537744140625	0		
0.028878591537475587	0.005977138996124267	0		0.6381500854492187	-2.6427109375	0		-0.8027886352539062	0.26908660888671876	0		-0.16968148803710936	-3.3351416015625	0		1.7253780517578126	-1.1608946533203126	0		3.131937744140625	-0.48959750366210936	0		4.400232421875	0.04902008056640625	0		5.89739794921875	0.40073843383789065	0		-0.12415579223632812	5.91541259765625	0		
0.026059274673461915	-0.005716272830963135	0		0.6702606201171875	-2.658995361328125	0		-0.8165897216796875	0.258578369140625	0		-0.17537875366210937	-3.339785400390625	0		1.7127811279296874	-1.1594190673828124	0		3.131321533203125	-0.489323486328125	0		4.40088818359375	0.0062676148414611815	0		5.8919677734375	0.4120980834960937	0		-0.12477803039550782	5.91568310546875	0		
-0.05639043426513672	0.0019211939573287964	0		0.6318693237304688	-2.648103515625	0		-0.8171524047851563	0.25883016967773437	0		-0.15788031005859374	-3.33583935546875	0		1.7232491455078125	-1.1573564453125	0		3.134063720703125	-0.5301378784179688	0		4.3979873046875	-0.01344965934753418	0		5.90008251953125	0.39319290161132814	0		-0.14050148010253907	5.906189453125	0		
0.020073495864868163	-1.5222600102424621E-4	0		0.6391494140625	-2.660009765625	0		-0.8176597900390625	0.2590618591308594	0		-0.19035957336425782	-3.333068359375	0		1.6900133056640625	-1.140575927734375	0		3.133266357421875	-0.5469151000976562	0		4.40486865234375	-0.049363147735595705	0		5.89957568359375	0.39340533447265624	0		-0.2733460693359375	5.88665625	0		
-0.05243318557739258	-0.0027265119552612304	0		0.626656494140625	-2.6616025390625	0		-0.8181079711914062	0.2592718505859375	0		-0.16409797668457032	-3.34931591796875	0		1.69162646484375	-1.1364112548828125	0		3.149152099609375	-0.5860043334960937	0		4.41590966796875	-0.07937456512451171	0		5.9042626953125	0.40150051879882814	0		-0.25763677978515626	5.894591796875	0		
0.03432426071166992	0.004981675148010254	0		0.645444091796875	-2.650746826171875	0		-0.8093718872070312	0.2663049011230469	0		-0.18713844299316407	-3.327746337890625	0		1.683594970703125	-1.11510498046875	0		3.160951416015625	-0.5750426635742187	0		4.4131884765625	-0.09917776489257812	0		5.90388232421875	0.401653076171875	0		-0.1256359405517578	5.91453759765625	0		
